<svg width="23" height="25" viewBox="0 0 23 25" fill="none" xmlns="http://www.w3.org/2000/svg">
<path d="M2.875 25C2.08437 25 1.40755 24.7552 0.844531 24.2656C0.28151 23.776 0 23.1875 0 22.5V7.5C0 6.8125 0.28151 6.22396 0.844531 5.73438C1.40755 5.24479 2.08437 5 2.875 5H5.75C5.75 3.625 6.31302 2.44792 7.43906 1.46875C8.5651 0.489583 9.91875 0 11.5 0C13.0812 0 14.4349 0.489583 15.5609 1.46875C16.687 2.44792 17.25 3.625 17.25 5H20.125C20.9156 5 21.5924 5.24479 22.1555 5.73438C22.7185 6.22396 23 6.8125 23 7.5V22.5C23 23.1875 22.7185 23.776 22.1555 24.2656C21.5924 24.7552 20.9156 25 20.125 25H2.875ZM2.875 22.5H20.125V7.5H17.25V10C17.25 10.3542 17.1122 10.651 16.8367 10.8906C16.5612 11.1302 16.2198 11.25 15.8125 11.25C15.4052 11.25 15.0638 11.1302 14.7883 10.8906C14.5128 10.651 14.375 10.3542 14.375 10V7.5H8.625V10C8.625 10.3542 8.48724 10.651 8.21172 10.8906C7.9362 11.1302 7.59479 11.25 7.1875 11.25C6.78021 11.25 6.4388 11.1302 6.16328 10.8906C5.88776 10.651 5.75 10.3542 5.75 10V7.5H2.875V22.5ZM8.625 5H14.375C14.375 4.3125 14.0935 3.72396 13.5305 3.23438C12.9674 2.74479 12.2906 2.5 11.5 2.5C10.7094 2.5 10.0326 2.74479 9.46953 3.23438C8.90651 3.72396 8.625 4.3125 8.625 5Z" fill="#EF2B00"/>
</svg>
