<svg width="25" height="25" viewBox="0 0 25 25" fill="none" xmlns="http://www.w3.org/2000/svg">
<path d="M22.95 24.875L14.2875 16.2125C13.6 16.7625 12.8094 17.1979 11.9156 17.5188C11.0219 17.8396 10.0708 18 9.0625 18C6.56458 18 4.45052 17.1349 2.72031 15.4047C0.990104 13.6745 0.125 11.5604 0.125 9.0625C0.125 6.56458 0.990104 4.45052 2.72031 2.72031C4.45052 0.990104 6.56458 0.125 9.0625 0.125C11.5604 0.125 13.6745 0.990104 15.4047 2.72031C17.1349 4.45052 18 6.56458 18 9.0625C18 10.0708 17.8396 11.0219 17.5188 11.9156C17.1979 12.8094 16.7625 13.6 16.2125 14.2875L24.875 22.95L22.95 24.875ZM9.0625 15.25C10.7812 15.25 12.2422 14.6484 13.4453 13.4453C14.6484 12.2422 15.25 10.7812 15.25 9.0625C15.25 7.34375 14.6484 5.88281 13.4453 4.67969C12.2422 3.47656 10.7812 2.875 9.0625 2.875C7.34375 2.875 5.88281 3.47656 4.67969 4.67969C3.47656 5.88281 2.875 7.34375 2.875 9.0625C2.875 10.7812 3.47656 12.2422 4.67969 13.4453C5.88281 14.6484 7.34375 15.25 9.0625 15.25Z" fill="#EF2B00"/>
</svg>
