<?xml version="1.0" encoding="UTF-8"?>
<svg xmlns="http://www.w3.org/2000/svg" xmlns:xlink="http://www.w3.org/1999/xlink" width="15px" height="15px" viewBox="0 0 15 15" version="1.1">
<g id="surface1">
<path style=" stroke:none;fill-rule:nonzero;fill:rgb(0%,0%,0%);fill-opacity:1;" d="M 7.246094 0.398438 C 7.195312 0.417969 7.109375 0.484375 7.0625 0.546875 C 7 0.625 6.667969 1.351562 6.058594 2.769531 C 5.5625 3.929688 5.140625 4.890625 5.125 4.90625 C 5.113281 4.917969 4.074219 5.027344 2.820312 5.144531 C 1.566406 5.261719 0.503906 5.363281 0.453125 5.375 C 0.195312 5.441406 0.015625 5.671875 0.015625 5.945312 C 0.015625 6.046875 0.0351562 6.148438 0.0703125 6.21875 C 0.109375 6.296875 0.628906 6.773438 1.890625 7.882812 C 2.867188 8.734375 3.664062 9.4375 3.664062 9.445312 C 3.664062 9.453125 3.601562 9.714844 3.53125 10.03125 C 3.457031 10.351562 3.398438 10.632812 3.398438 10.667969 C 3.398438 10.699219 3.429688 10.757812 3.472656 10.796875 C 3.570312 10.894531 3.707031 10.886719 3.78125 10.78125 C 3.847656 10.691406 4.140625 9.394531 4.117188 9.300781 C 4.109375 9.261719 3.410156 8.625 2.292969 7.648438 C 1.296875 6.773438 0.472656 6.027344 0.453125 5.988281 C 0.433594 5.933594 0.4375 5.902344 0.484375 5.859375 C 0.539062 5.804688 0.757812 5.78125 2.929688 5.582031 C 4.242188 5.457031 5.34375 5.351562 5.378906 5.335938 C 5.453125 5.304688 5.390625 5.445312 6.460938 2.960938 C 6.953125 1.808594 7.375 0.847656 7.390625 0.828125 C 7.40625 0.808594 7.457031 0.789062 7.5 0.789062 C 7.542969 0.789062 7.59375 0.808594 7.609375 0.828125 C 7.625 0.847656 7.753906 1.132812 7.894531 1.464844 C 8.035156 1.796875 8.171875 2.089844 8.195312 2.117188 C 8.226562 2.140625 8.28125 2.171875 8.324219 2.183594 C 8.429688 2.210938 8.5625 2.09375 8.5625 1.976562 C 8.5625 1.851562 8.050781 0.679688 7.9375 0.546875 C 7.890625 0.488281 7.800781 0.417969 7.742188 0.394531 C 7.613281 0.34375 7.371094 0.34375 7.246094 0.398438 Z M 7.246094 0.398438 "/>
<path style=" stroke:none;fill-rule:nonzero;fill:rgb(0%,0%,0%);fill-opacity:1;" d="M 8.617188 2.75 C 8.578125 2.777344 8.546875 2.832031 8.546875 2.886719 C 8.546875 2.9375 8.730469 3.40625 9.007812 4.042969 C 9.578125 5.375 9.539062 5.289062 9.632812 5.328125 C 9.675781 5.347656 10.777344 5.457031 12.082031 5.578125 C 14.253906 5.78125 14.460938 5.804688 14.515625 5.859375 C 14.5625 5.902344 14.566406 5.933594 14.546875 5.988281 C 14.527344 6.027344 13.703125 6.773438 12.707031 7.648438 C 11.671875 8.558594 10.890625 9.265625 10.882812 9.300781 C 10.871094 9.335938 11.105469 10.425781 11.398438 11.726562 C 11.921875 14.046875 11.929688 14.09375 11.875 14.152344 C 11.84375 14.191406 11.796875 14.210938 11.75 14.203125 C 11.707031 14.195312 10.75 13.640625 9.617188 12.96875 C 8.484375 12.296875 7.53125 11.75 7.5 11.75 C 7.464844 11.75 6.511719 12.296875 5.382812 12.96875 C 4.25 13.640625 3.292969 14.195312 3.25 14.203125 C 3.203125 14.210938 3.15625 14.191406 3.125 14.152344 C 3.070312 14.09375 3.078125 14.066406 3.355469 12.835938 C 3.65625 11.488281 3.652344 11.507812 3.503906 11.410156 C 3.414062 11.351562 3.292969 11.378906 3.234375 11.46875 C 3.210938 11.503906 3.066406 12.09375 2.914062 12.777344 C 2.605469 14.140625 2.601562 14.171875 2.746094 14.394531 C 2.863281 14.570312 3.039062 14.65625 3.269531 14.640625 C 3.445312 14.632812 3.472656 14.617188 5.453125 13.4375 C 6.558594 12.78125 7.480469 12.246094 7.5 12.246094 C 7.519531 12.246094 8.421875 12.773438 9.507812 13.417969 C 10.59375 14.0625 11.515625 14.605469 11.558594 14.617188 C 11.695312 14.671875 11.929688 14.65625 12.054688 14.582031 C 12.203125 14.5 12.328125 14.3125 12.351562 14.144531 C 12.367188 14.046875 12.261719 13.546875 11.867188 11.792969 C 11.589844 10.566406 11.359375 9.535156 11.351562 9.503906 C 11.335938 9.449219 11.605469 9.203125 13.105469 7.882812 C 14.371094 6.773438 14.890625 6.296875 14.929688 6.21875 C 15.015625 6.054688 15.003906 5.816406 14.902344 5.648438 C 14.804688 5.476562 14.683594 5.402344 14.445312 5.363281 C 14.335938 5.347656 13.308594 5.246094 12.15625 5.140625 C 11.007812 5.039062 10.019531 4.941406 9.964844 4.929688 L 9.859375 4.90625 L 9.398438 3.835938 C 9.148438 3.25 8.914062 2.753906 8.886719 2.734375 C 8.816406 2.679688 8.6875 2.6875 8.617188 2.75 Z M 8.617188 2.75 "/>
</g>
</svg>
